<?xml version="1.0" encoding="UTF-8"?>
<!DOCTYPE svg PUBLIC "-//W3C//DTD SVG 1.1//EN" "http://www.w3.org/Graphics/SVG/1.1/DTD/svg11.dtd">
<!-- Creator: CorelDRAW X5 -->
<svg xmlns="http://www.w3.org/2000/svg" xml:space="preserve" width="210mm" height="297mm" style="shape-rendering:geometricPrecision; text-rendering:geometricPrecision; image-rendering:optimizeQuality; fill-rule:evenodd; clip-rule:evenodd"
viewBox="0 0 21000 29700"
 xmlns:xlink="http://www.w3.org/1999/xlink">
 <defs>
  <style type="text/css">
   <![CDATA[
    .fil0 {fill:#4B4B4D}
    .fil1 {fill:#A9ABAE}
   ]]>
  </style>
 </defs>
 <g id="Layer_x0020_1">
  <metadata id="CorelCorpID_0Corel-Layer"/>
  <path class="fil0" d="M1214 2614l3743 0 1713 2966 -3180 1836 -156 90 90 156 2006 3475 90 156 156 -90 1938 -1119 64 111 90 156 156 -90 145 -84 2450 4244 -145 84 -156 90 90 156 2470 4277 90 156 156 -90 1086 -627 1570 2719 -14466 0 0 -18573zm13208 15674l1086 -627 156 -90 -90 -156 -2470 -4277 -90 -156 -156 90 -145 84 -2450 -4244 145 -84 156 -90 -90 -156 -64 -111 1938 -1119 156 -90 -90 -156 -2006 -3475 -90 -156 -156 90 -3180 1836 -1609 -2786 14414 0 0 18573 -3691 0 -1674 -2899z"/>
  <polygon class="fil1" points="10185,3966 3825,7638 5651,10801 7589,9682 7745,9592 7835,9748 7900,9859 8044,9776 8200,9686 8290,9842 10921,14397 11011,14553 10855,14643 10710,14727 12999,18692 15171,17438 12882,13473 12737,13557 12581,13647 12491,13491 9861,8935 9771,8779 9927,8689 10072,8605 10007,8494 9917,8338 10073,8248 12011,7129 "/>
  <polygon class="fil1" points="4873,21875 5683,21875 5683,26209 6622,26209 6622,27020 5683,27020 4873,27020 4873,26209 "/>
  <path class="fil1" d="M10943 21875c277,0 555,0 832,0 96,0 215,0 341,14 127,14 262,43 384,110 122,67 232,172 322,309 90,137 161,307 206,504 45,197 64,422 74,588 10,166 10,273 10,567 0,294 0,774 0,1053 0,279 0,356 -10,512 -10,156 -29,392 -68,580 -39,188 -96,327 -172,438 -75,111 -167,195 -266,257 -99,62 -204,103 -287,135 -84,32 -146,55 -215,66 -70,11 -147,11 -205,11 -315,0 -630,0 -946,0l0 -5145zm810 777l0 3541 20 0c50,0 121,0 182,-14 61,-14 113,-42 158,-91 45,-49 84,-120 110,-222 27,-102 42,-235 49,-372 8,-137 8,-279 8,-575 0,-296 0,-746 0,-1024 0,-278 0,-383 -5,-512 -5,-130 -16,-284 -43,-396 -27,-111 -70,-180 -121,-226 -51,-46 -112,-70 -173,-85 -61,-15 -123,-21 -175,-25l-11 -1z"/>
  <polygon class="fil1" points="9606,26209 9606,27020 8667,27020 7857,27020 7857,26209 7857,24852 7857,24042 7857,22685 7857,21875 8667,21875 9606,21875 9606,22685 8667,22685 8667,24042 9387,24042 9387,24852 8667,24852 8667,26209 "/>
  <path class="fil1" d="M14500 22569c35,-114 94,-247 170,-355 76,-108 169,-192 270,-255 100,-63 207,-106 333,-129 125,-22 269,-25 394,-8 125,17 231,52 330,106 99,54 191,125 273,219 81,94 152,210 190,334 48,160 47,343 47,509l0 731 -810 0 0 -687c0,-52 0,-103 -1,-155 -1,-48 -4,-88 -17,-132 -13,-45 -37,-94 -76,-122 -39,-28 -94,-36 -147,-24 -53,12 -105,45 -138,93 -34,48 -49,113 -57,165 -7,49 -8,95 -8,145l0 2930c0,40 1,77 6,117 6,49 17,125 48,178 31,54 81,86 133,101 51,14 104,11 147,-6 43,-17 77,-48 94,-89 18,-43 17,-95 17,-141l0 -1029 -238 0 0 -617 238 0 810 0 0 617 0 907 0 624 0 424 -617 0 0 -144c-19,15 -38,30 -56,43 -107,78 -179,110 -250,132 -71,22 -142,34 -221,36 -79,2 -167,-5 -256,-28 -88,-23 -177,-60 -269,-128 -91,-68 -184,-165 -248,-285 -63,-120 -96,-261 -116,-369 -20,-108 -26,-181 -29,-218 -1,-19 -2,-29 -2,-37l-1 -2960 0 -28c0,-165 6,-298 58,-466z"/>
  <polygon class="fil1" points="19780,26209 19780,27020 18841,27020 18030,27020 18030,26209 18030,24852 18030,24042 18030,22685 18030,21875 18841,21875 19780,21875 19780,22685 18841,22685 18841,24042 19561,24042 19561,24852 18841,24852 18841,26209 "/>
  <path class="fil1" d="M3522 23258l-810 0c0,-143 0,-330 -45,-462 -28,-83 -75,-145 -115,-182 -40,-38 -72,-50 -108,-46 -36,4 -77,26 -115,78 -38,53 -72,136 -81,251 -10,115 5,260 68,423 62,163 172,343 322,578 150,235 341,524 481,762 140,238 230,424 288,597 58,173 84,331 93,503 10,171 3,356 -24,517 -27,161 -74,298 -169,418 -95,120 -239,223 -378,285 -139,62 -274,84 -405,91 -131,8 -257,1 -385,-26 -128,-27 -256,-74 -372,-177 -116,-103 -219,-262 -288,-441 -140,-360 -143,-584 -143,-925l810 0c0,118 -3,257 8,374 8,85 23,196 62,270 40,74 104,110 167,124 63,14 125,5 175,-34 49,-40 86,-110 104,-209 18,-99 18,-225 -13,-369 -31,-144 -93,-304 -238,-549 -145,-244 -372,-572 -537,-844 -165,-271 -268,-486 -339,-697 -71,-211 -109,-419 -117,-607 -8,-188 16,-355 68,-507 51,-152 131,-289 236,-402 105,-113 236,-200 373,-249 137,-48 281,-57 413,-50 132,6 252,28 361,74 109,46 208,117 302,220 94,103 184,238 242,375 58,137 84,277 96,358 21,132 13,339 13,476z"/>
 </g>
</svg>
